<?xml version="1.0" encoding="utf-8"?>
<!-- Generator: Adobe Illustrator 27.0.1, SVG Export Plug-In . SVG Version: 6.00 Build 0)  -->
<svg version="1.1" xmlns="http://www.w3.org/2000/svg" xmlns:xlink="http://www.w3.org/1999/xlink" x="0px" y="0px"
	 viewBox="0 0 351.4 267.9" style="enable-background:new 0 0 351.4 267.9;" xml:space="preserve">
<style type="text/css">
	.st0{fill:#D22D40;}
	.st1{fill:#003657;}
	.st2{display:none;}
	.st3{display:inline;opacity:0.1;fill:#C40D3C;}
	.st4{display:inline;}
	.st5{fill:none;stroke:#C40D3C;stroke-width:9.955413e-02;stroke-miterlimit:10;}
	.st6{fill:none;stroke:#C40D3C;stroke-width:9.955413e-02;stroke-miterlimit:10;stroke-dasharray:5.8953,2.9477;}
	.st7{fill:none;stroke:#C40D3C;stroke-width:9.955413e-02;stroke-miterlimit:10;stroke-dasharray:6.0846,3.0423;}
	.st8{fill:none;stroke:#C40D3C;stroke-width:9.968509e-02;stroke-miterlimit:10;}
	.st9{fill:none;stroke:#C40D3C;stroke-width:9.968509e-02;stroke-miterlimit:10;stroke-dasharray:6.0068,3.0034;}
	.st10{fill:none;stroke:#C40D3C;stroke-width:9.968509e-02;stroke-miterlimit:10;stroke-dasharray:5.9518,2.9759;}
	.st11{display:inline;opacity:0.7;}
	.st12{fill:none;stroke:#003E5B;stroke-width:0.1;stroke-miterlimit:10;}
	.st13{fill:none;stroke:#003E5B;stroke-width:0.1;stroke-miterlimit:10;stroke-dasharray:5.9352,2.9676;}
	.st14{display:inline;fill:none;}
	.st15{display:inline;opacity:0.5;fill:#003E5B;}
	.st16{font-family:'Silka-Regular';}
	.st17{font-size:8px;}
</style>
<g id="LOGO_EN">
	<path class="st0" d="M223,75.2c-1-0.5-2-0.8-3-0.8c1.4-3.8,1.5-7.8,0.3-11.5c-3.8,0.9-7.2,3.1-9.7,6.3c-0.6-0.9-1.3-1.6-2.3-2.1
		c-3.2-1.8-7.3-0.6-9.2,2.6c-1.8,3.3-0.7,7.4,2.5,9.2c1.7,0.9,3.6,1.1,5.3,0.5c-3,3.2-7.3,5.3-12,5.3c-7.5,0-13.7-5-15.7-11.8
		c1.2,1.3,2.9,2.1,4.8,2.1c3.7,0,6.7-3,6.7-6.8c0-3.7-3-6.8-6.7-6.8c-1.1,0-2.1,0.3-3,0.7c-0.6-4-2.5-7.6-5.4-10.2
		c-2.8,2.6-4.8,6.2-5.4,10.2c-0.9-0.5-1.9-0.7-3-0.7c-3.7,0-6.7,3-6.7,6.8c0,3.7,3,6.8,6.7,6.8c1.9,0,3.6-0.8,4.8-2.1
		c-2,6.8-8.2,11.8-15.7,11.8c-4.7,0-9-2-12-5.3c1.7,0.5,3.6,0.4,5.3-0.5c3.2-1.8,4.4-5.9,2.5-9.2c-1.8-3.3-5.9-4.4-9.2-2.6
		c-1,0.5-1.7,1.3-2.3,2.1c-2.5-3.2-5.9-5.4-9.7-6.3c-1.2,3.7-1.2,7.7,0.3,11.5c-1,0-2,0.3-3,0.8c-3.2,1.8-4.4,5.9-2.5,9.2
		c1.8,3.3,5.9,4.4,9.2,2.6c1.2-0.7,2.1-1.6,2.7-2.8c1.9,3.5,2.9,7.6,2.9,11.8c0,1.6-0.1,3.1-0.4,4.6c-0.1,0.3,0.1,0.5,0.4,0.6
		c10.1,1.5,22.1,2.4,35.1,2.4s25-0.9,35.1-2.4c0.3,0,0.5-0.3,0.4-0.6c-0.3-1.5-0.4-3-0.4-4.6c0-4.3,1.1-8.3,2.9-11.8
		c0.6,1.1,1.5,2.1,2.7,2.8c3.2,1.8,7.3,0.6,9.2-2.6C227.4,81.1,226.2,77,223,75.2z"/>
	<g>
		<path class="st1" d="M84.8,146.9c0-10.8,7.3-17.8,17.3-17.8c3.6,0,7.7,0.8,12.2,1.9v10.5h-0.3c-2.7-4-6.7-10-10.8-10
			c-4.1,0-7.8,6.3-7.8,15.4c0,9.1,3.7,15.4,7.8,15.4c3.6,0,7.3-5,10.8-10.1h0.3v10.6c-4.6,1.1-8.4,1.9-12.6,1.9
			C92.2,164.7,84.8,157.7,84.8,146.9z"/>
		<path class="st1" d="M131,164.2h-12V164c0-0.2,1.5-4.4,1.5-8v-18.6c0-3.6-1.6-7.6-1.6-7.8l0-0.2l1.5-0.2l9.2-1v15.3
			c1.5-2.2,4-4.1,7.6-4.1c4.5,0,8,2.9,8,8v8.6c0,3.6,1.5,7.8,1.5,8v0.2h-12V164c0-0.2,1.5-4.4,1.5-8v-7.3c0-2.8-1.8-3.7-3.8-3.7
			c-0.9,0-1.9,0.2-2.8,0.5V156c0,3.6,1.5,7.8,1.5,8V164.2z"/>
		<path class="st1" d="M149.7,156.7c0-4.9,4.3-8,9.1-8c1.4,0,3.6,0.3,5.5,1.1v-2.6c0-3.3,0-5.4-1.1-5.4c-2.7,0-11.2,6.8-11.2,6.8
			h-0.2V141c4.8-1.1,9.4-1.6,12-1.6c7.2,0,9.5,3.8,9.5,8.5v8.3c0,3.1,0.5,4.6,3,3.3l0.1,0.1c-0.2,2.8-2.3,5-5.9,5
			c-3,0-5-1.5-5.9-4.2c-1,1.9-3.4,4.2-7.3,4.2C152.3,164.7,149.7,160.5,149.7,156.7z M162.7,159.8c0.7,0,1.2-0.2,1.8-0.6
			c-0.1-0.5-0.1-1.1-0.1-1.7v-6c-0.5-0.1-1-0.2-1.4-0.2c-2.8,0-3.8,1.7-3.8,4C159.1,157.8,160.3,159.8,162.7,159.8z"/>
		<path class="st1" d="M191.3,164.2h-12V164c0-0.2,1.5-4.4,1.5-8v-8.1c0-3.6-1.5-7.8-1.5-8v-0.2h10.5v5.2c1.7-3.9,4.7-7.2,10.4-5.3
			l-1.4,9.5h-0.2c-2-2.3-5.1-4.7-8.7-2.9v9.8c0,3.6,1.5,7.8,1.5,8V164.2z"/>
		<path class="st1" d="M214.5,164.2h-12V164c0-0.2,1.5-4.4,1.5-8v-18.6c0-3.6-1.6-7.6-1.6-7.8l0-0.2l1.5-0.2l9.2-1V156
			c0,3.6,1.5,7.8,1.5,8V164.2z"/>
		<path class="st1" d="M217,152c0-8.1,5.3-12.6,13.1-12.6c9.1,0,11.8,6.7,11.8,12.2H227c0.6,4.3,2.4,7.3,7,7.3
			c2.4,0,4.3-0.6,7.1-2.1l0.2,0.1c-1,3.1-4.8,7.8-11.4,7.8C223.9,164.7,217,161,217,152z M226.9,150.4l6.1-1.9
			c0-2.9-0.2-6.9-3.1-6.9c-2.8,0-3.2,3.9-3.1,6.9C226.8,149.1,226.9,149.8,226.9,150.4z"/>
		<path class="st1" d="M246,162.9V155h0.2c3.2,3.1,6.8,7.3,10.4,7.3c1.5,0,2.8-0.7,2.8-2.2c0-2-2.4-2.7-6.3-4.1
			c-5.3-1.9-8.1-4.9-8.1-8.8c0-4.8,4.3-7.7,11-7.7c1.9,0,5.4,0.2,9.1,1.6v7.6H265c-3-3.2-6.4-7-9.8-7c-1.3,0-2.6,0.5-2.6,2
			c0,2,2.6,2.9,6.3,4.2c6.3,2.2,7.7,5.2,7.7,8.4c0,6-5.3,8.4-10.5,8.4C254,164.7,250.5,164.4,246,162.9z"/>
	</g>
	<g>
		<path class="st1" d="M53.3,201.4v-11.8c0-3.6-1.5-7.8-1.5-8v-0.2h12.6v0.2c0,0.2-1.5,4.4-1.5,8v12.9c0,7.1,2.9,10.1,7.5,10.1
			c4.6,0,7.5-3.1,7.5-9.7v-9.2c0-5.5-3-11.7-3-12v-0.3h9.2v0.3c0,0.3-3,6.5-3,12v9.2c0,9.8-6,13.7-13.3,13.7
			C61,216.6,53.3,213.1,53.3,201.4z"/>
		<path class="st1" d="M97.5,216h-12v-0.2c0-0.2,1.5-4.4,1.5-8v-8.1c0-3.6-1.5-7.8-1.5-8v-0.2h10.5v4.1c1.2-2.2,3.8-4.4,7.7-4.4
			c4.5,0,8,2.9,8,8v8.6c0,3.6,1.5,7.8,1.5,8v0.2h-12v-0.2c0-0.2,1.5-4.4,1.5-8v-7.3c0-2.8-1.7-3.7-3.5-3.8c-1.1,0-2.2,0.3-3.2,0.7
			v10.4c0,3.6,1.5,7.8,1.5,8V216z"/>
		<path class="st1" d="M129.7,216h-12v-0.2c0-0.2,1.5-4.4,1.5-8v-8.1c0-3.6-1.5-7.8-1.5-8v-0.2h10.5v16.3c0,3.6,1.5,7.8,1.5,8V216z
			 M117.8,184.1c0-3,2.4-5.3,5.4-5.3s5.4,2.4,5.4,5.3s-2.5,5.3-5.4,5.3C120.4,189.5,117.8,187.1,117.8,184.1z"/>
		<path class="st1" d="M159.9,203.9c0-8.1,5.3-12.6,13.1-12.6c9.1,0,11.8,6.7,11.8,12.2h-14.8c0.6,4.3,2.4,7.3,7,7.3
			c2.4,0,4.3-0.6,7.1-2.1l0.2,0.1c-1,3.1-4.8,7.8-11.4,7.8C166.8,216.6,159.9,212.8,159.9,203.9z M169.8,202.2l6.1-1.9
			c0-2.9-0.2-6.9-3.1-6.9c-2.8,0-3.2,3.9-3.1,6.9C169.7,201,169.7,201.6,169.8,202.2z"/>
		<path class="st1" d="M199.8,216h-12v-0.2c0-0.2,1.5-4.4,1.5-8v-8.1c0-3.6-1.5-7.8-1.5-8v-0.2h10.5v5.2c1.7-3.9,4.7-7.2,10.4-5.3
			l-1.4,9.5h-0.2c-2-2.3-5.1-4.7-8.7-2.9v9.8c0,3.6,1.5,7.8,1.5,8V216z"/>
		<path class="st1" d="M211.7,214.7v-7.9h0.2c3.2,3.1,6.8,7.3,10.4,7.3c1.5,0,2.8-0.7,2.8-2.2c0-2-2.4-2.7-6.3-4.1
			c-5.3-1.9-8.1-4.9-8.1-8.8c0-4.8,4.3-7.7,11-7.7c1.9,0,5.4,0.2,9.1,1.6v7.6h-0.2c-3-3.2-6.4-7-9.8-7c-1.3,0-2.6,0.5-2.6,2
			c0,2,2.6,2.9,6.3,4.2c6.3,2.2,7.7,5.2,7.7,8.4c0,6-5.3,8.4-10.5,8.4C219.7,216.5,216.1,216.2,211.7,214.7z"/>
		<path class="st1" d="M248.6,216h-12v-0.2c0-0.2,1.5-4.4,1.5-8v-8.1c0-3.6-1.5-7.8-1.5-8v-0.2h10.5v16.3c0,3.6,1.5,7.8,1.5,8V216z
			 M236.8,184.1c0-3,2.4-5.3,5.4-5.3s5.4,2.4,5.4,5.3s-2.5,5.3-5.4,5.3C239.3,189.5,236.8,187.1,236.8,184.1z"/>
		<path class="st1" d="M254.2,208.1v-14.2h-3.5v-2.4c5.4-2.8,9.2-5.8,12.5-9.1v9.1h6.4v2.4h-6.4l0,13.4c0,2.4,1.3,3.4,3.1,3.4
			c1,0,2-0.3,3.1-0.7c-1.1,3.2-3.3,6.6-8.1,6.6C257,216.6,254.2,213.7,254.2,208.1z"/>
		<path class="st1" d="M275.3,216.4l0.1,0c3.7,4,7.7,5.9,9.6,1.4l0.2-0.6l-8.7-18.2c-1.6-3.3-4.2-7-4.3-7.2v-0.2h14.1v0.2
			c0,0.1-1.7,3.6-0.3,6.6l3.8,7.9l3.3-7.8c1.3-3-0.6-6.6-0.6-6.7v-0.2h7v0.2c-0.1,0.2-2.6,4.1-4.1,7.5l-8.6,20.3
			c-2.5,6.1-6.4,7.4-13.2,5L275.3,216.4z"/>
		<path class="st1" d="M131.8,191.7v-0.1H146v0.2c0,0.1-1.8,3.6-0.5,6.7l4.1,9.1l3.7-9.1c1.2-3-0.6-6.6-0.6-6.7v-0.2h7.4v0.2
			c0,0.2-2.6,4.1-4,7.5L149,216h-5.5l-7.6-16.8C134.5,195.8,131.8,191.9,131.8,191.7z"/>
	</g>
</g>
<g id="SAFE_ZONE" class="st2">
	<path class="st3" d="M223,23.4c-1-0.5-2-0.8-3-0.8c1.4-3.8,1.5-7.8,0.3-11.5c-3.8,0.9-7.2,3.1-9.7,6.3c-0.6-0.9-1.3-1.6-2.3-2.1
		c-3.2-1.8-7.3-0.6-9.2,2.6c-1.8,3.3-0.7,7.4,2.5,9.2c1.7,0.9,3.6,1.1,5.3,0.5c-3,3.2-7.3,5.3-12,5.3c-7.5,0-13.7-5-15.7-11.8
		c1.2,1.3,2.9,2.1,4.8,2.1c3.7,0,6.7-3,6.7-6.8c0-3.7-3-6.8-6.7-6.8c-1.1,0-2.1,0.3-3,0.7c-0.6-4-2.5-7.6-5.4-10.2
		c-2.8,2.6-4.8,6.2-5.4,10.2c-0.9-0.5-1.9-0.7-3-0.7c-3.7,0-6.7,3-6.7,6.8c0,3.7,3,6.8,6.7,6.8c1.9,0,3.6-0.8,4.8-2.1
		c-2,6.8-8.2,11.8-15.7,11.8c-4.7,0-9-2-12-5.3c1.7,0.5,3.6,0.4,5.3-0.5c3.2-1.8,4.4-5.9,2.5-9.2c-1.8-3.3-5.9-4.4-9.2-2.6
		c-1,0.5-1.7,1.3-2.3,2.1c-2.5-3.2-5.9-5.4-9.7-6.3c-1.2,3.7-1.2,7.7,0.3,11.5c-1,0-2,0.3-3,0.8c-3.2,1.8-4.4,5.9-2.5,9.2
		c1.8,3.3,5.9,4.4,9.2,2.6c1.2-0.7,2.1-1.6,2.7-2.8c1.9,3.5,2.9,7.6,2.9,11.8c0,1.6-0.1,3.1-0.4,4.6c-0.1,0.3,0.1,0.5,0.4,0.6
		c10.1,1.5,22.1,2.4,35.1,2.4s25-0.9,35.1-2.4c0.3,0,0.5-0.3,0.4-0.6c-0.3-1.5-0.4-3-0.4-4.6c0-4.3,1.1-8.3,2.9-11.8
		c0.6,1.1,1.5,2.1,2.7,2.8c3.2,1.8,7.3,0.6,9.2-2.6C227.3,29.3,226.2,25.2,223,23.4z"/>
	<path class="st3" d="M241.7,244.5c-1,0.5-2,0.8-3,0.8c1.4,3.8,1.5,7.8,0.3,11.5c-3.8-0.9-7.2-3.1-9.7-6.3c-0.6,0.9-1.3,1.6-2.3,2.1
		c-3.2,1.8-7.3,0.6-9.2-2.6c-1.8-3.3-0.7-7.4,2.5-9.2c1.7-0.9,3.6-1.1,5.3-0.5c-3-3.2-7.3-5.3-12-5.3c-7.5,0-13.7,5-15.7,11.8
		c1.2-1.3,2.9-2.1,4.8-2.1c3.7,0,6.7,3,6.7,6.8c0,3.7-3,6.8-6.7,6.8c-1.1,0-2.1-0.3-3-0.7c-0.6,4-2.5,7.6-5.4,10.2
		c-2.8-2.6-4.8-6.2-5.4-10.2c-0.9,0.5-1.9,0.7-3,0.7c-3.7,0-6.7-3-6.7-6.8c0-3.7,3-6.8,6.7-6.8c1.9,0,3.6,0.8,4.8,2.1
		c-2-6.8-8.2-11.8-15.7-11.8c-4.7,0-9,2-12,5.3c1.7-0.5,3.6-0.4,5.3,0.5c3.2,1.8,4.4,5.9,2.5,9.2c-1.8,3.3-5.9,4.4-9.2,2.6
		c-1-0.5-1.7-1.3-2.3-2.1c-2.5,3.2-5.9,5.4-9.7,6.3c-1.2-3.7-1.2-7.7,0.3-11.5c-1,0-2-0.3-3-0.8c-3.2-1.8-4.4-5.9-2.5-9.2
		c1.8-3.3,5.9-4.4,9.2-2.6c1.2,0.7,2.1,1.6,2.7,2.8c1.9-3.5,2.9-7.6,2.9-11.8c0-1.6-0.1-3.1-0.4-4.6c-0.1-0.3,0.1-0.5,0.4-0.6
		c10.1-1.5,22.1-2.4,35.1-2.4s25,0.9,35.1,2.4c0.3,0,0.5,0.3,0.4,0.6c-0.3,1.5-0.4,3-0.4,4.6c0,4.3,1.1,8.3,2.9,11.8
		c0.6-1.1,1.5-2.1,2.7-2.8c3.2-1.8,7.3-0.6,9.2,2.6C246,238.6,244.9,242.7,241.7,244.5z"/>
	<path class="st3" d="M23.4,134.2c-0.5,1-0.8,2-0.8,3c-3.8-1.4-7.8-1.5-11.5-0.3c0.9,3.8,3.1,7.2,6.3,9.7c-0.9,0.6-1.6,1.3-2.1,2.3
		c-1.8,3.2-0.6,7.3,2.6,9.2c3.3,1.8,7.4,0.7,9.2-2.5c0.9-1.7,1.1-3.6,0.5-5.3c3.2,3,5.3,7.3,5.3,12c0,7.5-5,13.7-11.8,15.7
		c1.3-1.2,2.1-2.9,2.1-4.8c0-3.7-3-6.7-6.8-6.7c-3.7,0-6.8,3-6.8,6.7c0,1.1,0.3,2.1,0.7,3c-4,0.6-7.6,2.5-10.2,5.4
		c2.6,2.8,6.2,4.8,10.2,5.4c-0.5,0.9-0.7,1.9-0.7,3c0,3.7,3,6.7,6.8,6.7c3.7,0,6.8-3,6.8-6.7c0-1.9-0.8-3.6-2.1-4.8
		c6.8,2,11.8,8.2,11.8,15.7c0,4.7-2,9-5.3,12c0.5-1.7,0.4-3.6-0.5-5.3c-1.8-3.2-5.9-4.4-9.2-2.5c-3.3,1.8-4.4,5.9-2.6,9.2
		c0.5,1,1.3,1.7,2.1,2.3c-3.2,2.5-5.4,5.9-6.3,9.7c3.7,1.2,7.7,1.2,11.5-0.3c0,1,0.3,2,0.8,3c1.8,3.2,5.9,4.4,9.2,2.5
		c3.3-1.8,4.4-5.9,2.6-9.2c-0.7-1.2-1.6-2.1-2.8-2.7c3.5-1.9,7.6-2.9,11.8-2.9c1.6,0,3.1,0.1,4.6,0.4c0.3,0.1,0.5-0.1,0.6-0.4
		c1.5-10.1,2.4-22.1,2.4-35.1s-0.9-25-2.4-35.1c0-0.3-0.3-0.5-0.6-0.4c-1.5,0.3-3,0.4-4.6,0.4c-4.3,0-8.3-1.1-11.8-2.9
		c1.1-0.6,2.1-1.5,2.8-2.7c1.8-3.2,0.6-7.3-2.6-9.2C29.3,129.8,25.2,130.9,23.4,134.2z"/>
	<path class="st3" d="M328,238.8c0.5-1,0.8-2,0.8-3c3.8,1.4,7.8,1.5,11.5,0.3c-0.9-3.8-3.1-7.2-6.3-9.7c0.9-0.6,1.6-1.3,2.1-2.3
		c1.8-3.2,0.6-7.3-2.6-9.2c-3.3-1.8-7.4-0.7-9.2,2.5c-0.9,1.7-1.1,3.6-0.5,5.3c-3.2-3-5.3-7.3-5.3-12c0-7.5,5-13.7,11.8-15.7
		c-1.3,1.2-2.1,2.9-2.1,4.8c0,3.7,3,6.7,6.8,6.7c3.7,0,6.8-3,6.8-6.7c0-1.1-0.3-2.1-0.7-3c4-0.6,7.6-2.5,10.2-5.4
		c-2.6-2.8-6.2-4.8-10.2-5.4c0.5-0.9,0.7-1.9,0.7-3c0-3.7-3-6.7-6.8-6.7c-3.7,0-6.8,3-6.8,6.7c0,1.9,0.8,3.6,2.1,4.8
		c-6.8-2-11.8-8.2-11.8-15.7c0-4.7,2-9,5.3-12c-0.5,1.7-0.4,3.6,0.5,5.3c1.8,3.2,5.9,4.4,9.2,2.5c3.3-1.8,4.4-5.9,2.6-9.2
		c-0.5-1-1.3-1.7-2.1-2.3c3.2-2.5,5.4-5.9,6.3-9.7c-3.7-1.2-7.7-1.2-11.5,0.3c0-1-0.3-2-0.8-3c-1.8-3.2-5.9-4.4-9.2-2.5
		c-3.3,1.8-4.4,5.9-2.6,9.2c0.7,1.2,1.6,2.1,2.8,2.7c-3.5,1.9-7.6,2.9-11.8,2.9c-1.6,0-3.1-0.1-4.6-0.4c-0.3-0.1-0.5,0.1-0.6,0.4
		c-1.5,10.1-2.4,22.1-2.4,35.1s0.9,25,2.4,35.1c0,0.3,0.3,0.5,0.6,0.4c1.5-0.3,3-0.4,4.6-0.4c4.3,0,8.3,1.1,11.8,2.9
		c-1.1,0.6-2.1,1.5-2.8,2.7c-1.8,3.2-0.6,7.3,2.6,9.2C322.1,243.2,326.2,242.1,328,238.8z"/>
	<g class="st4">
		<g>
			<polyline class="st5" points="299.5,213 299.5,216 296.5,216 			"/>
			<line class="st6" x1="293.6" y1="216" x2="56.3" y2="216"/>
			<polyline class="st5" points="54.8,216 51.8,216 51.8,213 			"/>
			<line class="st7" x1="51.8" y1="210" x2="51.8" y2="56.4"/>
			<polyline class="st5" points="51.8,54.8 51.8,51.8 54.8,51.8 			"/>
			<line class="st6" x1="57.8" y1="51.8" x2="295.1" y2="51.8"/>
			<polyline class="st5" points="296.5,51.8 299.5,51.8 299.5,54.8 			"/>
			<line class="st7" x1="299.5" y1="57.9" x2="299.5" y2="211.5"/>
		</g>
	</g>
	<g class="st4">
		<g>
			<polyline class="st8" points="351.4,264.9 351.4,267.9 348.4,267.9 			"/>
			<line class="st9" x1="345.4" y1="267.9" x2="4.5" y2="267.9"/>
			<polyline class="st8" points="3,267.9 0,267.9 0,264.9 			"/>
			<line class="st10" x1="0" y1="261.9" x2="0" y2="4.5"/>
			<polyline class="st8" points="0,3 0,0 3,0 			"/>
			<line class="st9" x1="6" y1="0" x2="346.9" y2="0"/>
			<polyline class="st8" points="348.4,0 351.4,0 351.4,3 			"/>
			<line class="st10" x1="351.4" y1="6" x2="351.4" y2="263.4"/>
		</g>
	</g>
</g>
<g id="KOTY" class="st2">
	<g class="st11">
		<g>
			<line class="st12" x1="41.4" y1="216" x2="44.4" y2="216"/>
			<line class="st13" x1="47.4" y1="216" x2="304.1" y2="216"/>
			<line class="st12" x1="305.6" y1="216" x2="308.6" y2="216"/>
		</g>
	</g>
	<g class="st11">
		<g>
			<line class="st12" x1="41.4" y1="181.5" x2="44.4" y2="181.5"/>
			<line class="st13" x1="47.4" y1="181.5" x2="304.1" y2="181.5"/>
			<line class="st12" x1="305.6" y1="181.5" x2="308.6" y2="181.5"/>
		</g>
	</g>
	<g class="st11">
		<g>
			<line class="st12" x1="41.4" y1="164.2" x2="44.4" y2="164.2"/>
			<line class="st13" x1="47.4" y1="164.2" x2="304.1" y2="164.2"/>
			<line class="st12" x1="305.6" y1="164.2" x2="308.6" y2="164.2"/>
		</g>
	</g>
	<g class="st11">
		<g>
			<line class="st12" x1="41.4" y1="129.6" x2="44.4" y2="129.6"/>
			<line class="st13" x1="47.4" y1="129.6" x2="304.1" y2="129.6"/>
			<line class="st12" x1="305.6" y1="129.6" x2="308.6" y2="129.6"/>
		</g>
	</g>
	<g class="st11">
		<g>
			<line class="st12" x1="41.4" y1="103.7" x2="44.4" y2="103.7"/>
			<line class="st13" x1="47.4" y1="103.7" x2="304.1" y2="103.7"/>
			<line class="st12" x1="305.6" y1="103.7" x2="308.6" y2="103.7"/>
		</g>
	</g>
	<g class="st11">
		<g>
			<line class="st12" x1="41.4" y1="51.8" x2="44.4" y2="51.8"/>
			<line class="st13" x1="47.4" y1="51.8" x2="304.1" y2="51.8"/>
			<line class="st12" x1="305.6" y1="51.8" x2="308.6" y2="51.8"/>
		</g>
	</g>
	<rect x="5.9" y="51.2" class="st14" width="34" height="52.4"/>
	<text transform="matrix(1 0 0 1 23.3983 80.4017)" class="st15 st16 st17">1.5 ×</text>
	<rect x="5.9" y="103.6" class="st14" width="34" height="26"/>
	<text transform="matrix(1 0 0 1 17.5907 119.6154)" class="st15 st16 st17">0.75 ×</text>
	<rect x="5.9" y="129.6" class="st14" width="34" height="34.6"/>
	<text transform="matrix(1 0 0 1 30.4462 149.8952)" class="st15 st16 st17">1 ×</text>
	<rect x="5.9" y="181.4" class="st14" width="34" height="34.6"/>
	<text transform="matrix(1 0 0 1 30.4462 201.6607)" class="st15 st16 st17">1 ×</text>
	<rect x="5.9" y="164.2" class="st14" width="34" height="17.2"/>
	<text transform="matrix(1 0 0 1 22.0302 175.7784)" class="st15 st16 st17">0.5 ×</text>
</g>
</svg>
